<svg width="164" height="195" viewBox="0 0 164 195" fill="none" xmlns="http://www.w3.org/2000/svg">
<path d="M42.2389 185.24C42.2389 186.093 42.1002 186.88 41.8229 187.6C41.5455 188.32 41.1535 188.941 40.6469 189.464C40.1455 189.981 39.5402 190.387 38.8309 190.68C38.1269 190.973 37.3429 191.12 36.4789 191.12C35.6202 191.12 34.8362 190.973 34.1269 190.68C33.4229 190.387 32.8175 189.981 32.3109 189.464C31.8042 188.941 31.4122 188.32 31.1349 187.6C30.8575 186.88 30.7189 186.093 30.7189 185.24C30.7189 184.387 30.8575 183.6 31.1349 182.88C31.4122 182.16 31.8042 181.539 32.3109 181.016C32.8175 180.493 33.4229 180.085 34.1269 179.792C34.8362 179.499 35.6202 179.352 36.4789 179.352C37.3429 179.352 38.1269 179.499 38.8309 179.792C39.5402 180.085 40.1455 180.493 40.6469 181.016C41.1535 181.539 41.5455 182.16 41.8229 182.88C42.1002 183.6 42.2389 184.387 42.2389 185.24ZM40.3269 185.24C40.3269 184.579 40.2362 183.984 40.0549 183.456C39.8789 182.928 39.6229 182.48 39.2869 182.112C38.9562 181.744 38.5535 181.461 38.0789 181.264C37.6042 181.067 37.0709 180.968 36.4789 180.968C35.8922 180.968 35.3615 181.067 34.8869 181.264C34.4122 181.461 34.0069 181.744 33.6709 182.112C33.3349 182.48 33.0762 182.928 32.8949 183.456C32.7135 183.984 32.6229 184.579 32.6229 185.24C32.6229 185.907 32.7135 186.504 32.8949 187.032C33.0762 187.56 33.3349 188.008 33.6709 188.376C34.0069 188.739 34.4122 189.019 34.8869 189.216C35.3615 189.408 35.8922 189.504 36.4789 189.504C37.0709 189.504 37.6042 189.408 38.0789 189.216C38.5535 189.019 38.9562 188.739 39.2869 188.376C39.6229 188.008 39.8789 187.56 40.0549 187.032C40.2362 186.504 40.3269 185.907 40.3269 185.24ZM48.7635 189.76V184.176H46.4755C46.4275 184.923 46.3582 185.592 46.2675 186.184C46.1822 186.776 46.0808 187.301 45.9635 187.76C45.8515 188.213 45.7262 188.605 45.5875 188.936C45.4488 189.261 45.3048 189.536 45.1555 189.76H48.7635ZM51.9235 189.704V193.248C51.9235 193.408 51.8755 193.533 51.7795 193.624C51.6888 193.72 51.5715 193.768 51.4275 193.768H50.3635V191H43.9075V193.28C43.9075 193.403 43.8675 193.515 43.7875 193.616C43.7128 193.717 43.5955 193.768 43.4355 193.768H42.3475V189.76H42.5955C42.7822 189.76 42.9662 189.733 43.1475 189.68C43.3288 189.621 43.5022 189.507 43.6675 189.336C43.8328 189.165 43.9902 188.925 44.1395 188.616C44.2888 188.301 44.4222 187.888 44.5395 187.376C44.6622 186.864 44.7688 186.237 44.8595 185.496C44.9502 184.755 45.0222 183.869 45.0755 182.84H50.4275V189.704H51.9235ZM58.4781 186C58.4781 185.712 58.4355 185.445 58.3501 185.2C58.2701 184.949 58.1501 184.733 57.9901 184.552C57.8301 184.365 57.6301 184.221 57.3901 184.12C57.1555 184.013 56.8835 183.96 56.5741 183.96C55.9501 183.96 55.4595 184.139 55.1021 184.496C54.7448 184.853 54.5181 185.355 54.4221 186H58.4781ZM54.3741 187.056C54.3955 187.52 54.4675 187.923 54.5901 188.264C54.7128 188.6 54.8755 188.88 55.0781 189.104C55.2861 189.328 55.5315 189.496 55.8141 189.608C56.1021 189.715 56.4221 189.768 56.7741 189.768C57.1101 189.768 57.4008 189.731 57.6461 189.656C57.8915 189.576 58.1048 189.491 58.2861 189.4C58.4675 189.304 58.6221 189.219 58.7501 189.144C58.8781 189.064 58.9955 189.024 59.1021 189.024C59.2408 189.024 59.3475 189.077 59.4221 189.184L59.9101 189.816C59.7075 190.056 59.4781 190.259 59.2221 190.424C58.9661 190.589 58.6941 190.725 58.4061 190.832C58.1181 190.933 57.8221 191.005 57.5181 191.048C57.2141 191.096 56.9181 191.12 56.6301 191.12C56.0648 191.12 55.5395 191.027 55.0541 190.84C54.5741 190.648 54.1555 190.368 53.7981 190C53.4461 189.632 53.1688 189.176 52.9661 188.632C52.7688 188.088 52.6701 187.461 52.6701 186.752C52.6701 186.187 52.7581 185.659 52.9341 185.168C53.1155 184.677 53.3715 184.251 53.7021 183.888C54.0381 183.525 54.4435 183.24 54.9181 183.032C55.3981 182.819 55.9395 182.712 56.5421 182.712C57.0435 182.712 57.5075 182.795 57.9341 182.96C58.3608 183.12 58.7288 183.357 59.0381 183.672C59.3475 183.987 59.5875 184.373 59.7581 184.832C59.9341 185.285 60.0221 185.803 60.0221 186.384C60.0221 186.651 59.9928 186.829 59.9341 186.92C59.8755 187.011 59.7688 187.056 59.6141 187.056H54.3741ZM73.188 191H72.004C71.7 191 71.4653 190.952 71.3 190.856C71.14 190.76 71.0147 190.608 70.924 190.4L69.54 188.016C69.428 187.813 69.2813 187.664 69.1 187.568C68.9187 187.472 68.7133 187.424 68.484 187.424H67.756V191.008H66.092V187.424H65.372C65.1373 187.424 64.9293 187.472 64.748 187.568C64.572 187.664 64.4253 187.813 64.308 188.016L62.924 190.4C62.8333 190.608 62.7053 190.76 62.54 190.856C62.38 190.952 62.148 191 61.844 191H60.66L62.676 187.632C62.8147 187.392 62.9693 187.197 63.14 187.048C63.316 186.893 63.5347 186.779 63.796 186.704C63.5987 186.629 63.428 186.528 63.284 186.4C63.1453 186.272 63.012 186.107 62.884 185.904L60.876 182.84H62.228C62.388 182.84 62.5347 182.883 62.668 182.968C62.8013 183.053 62.9053 183.165 62.98 183.304L64.532 185.752C64.6387 185.928 64.7667 186.059 64.916 186.144C65.0653 186.229 65.252 186.272 65.476 186.272H66.092V182.832H67.756V186.272H68.348C68.7907 186.272 69.1133 186.099 69.316 185.752L70.868 183.304C70.9427 183.165 71.0467 183.053 71.18 182.968C71.3187 182.883 71.468 182.84 71.628 182.84H72.972L70.964 185.904C70.836 186.107 70.7027 186.272 70.564 186.4C70.4253 186.528 70.2573 186.629 70.06 186.704C70.3213 186.779 70.5373 186.893 70.708 187.048C70.8787 187.197 71.0333 187.392 71.172 187.632L73.188 191ZM79.9354 189.76V184.176H77.6474C77.5994 184.923 77.53 185.592 77.4394 186.184C77.354 186.776 77.2527 187.301 77.1354 187.76C77.0234 188.213 76.898 188.605 76.7594 188.936C76.6207 189.261 76.4767 189.536 76.3274 189.76H79.9354ZM83.0954 189.704V193.248C83.0954 193.408 83.0474 193.533 82.9514 193.624C82.8607 193.72 82.7434 193.768 82.5994 193.768H81.5354V191H75.0794V193.28C75.0794 193.403 75.0394 193.515 74.9594 193.616C74.8847 193.717 74.7674 193.768 74.6074 193.768H73.5194V189.76H73.7674C73.954 189.76 74.138 189.733 74.3194 189.68C74.5007 189.621 74.674 189.507 74.8394 189.336C75.0047 189.165 75.162 188.925 75.3114 188.616C75.4607 188.301 75.594 187.888 75.7114 187.376C75.834 186.864 75.9407 186.237 76.0314 185.496C76.122 184.755 76.194 183.869 76.2474 182.84H81.5994V189.704H83.0954ZM88.7986 187.432C88.1853 187.453 87.668 187.504 87.2466 187.584C86.8253 187.659 86.484 187.757 86.2226 187.88C85.9613 187.997 85.772 188.139 85.6546 188.304C85.5426 188.469 85.4866 188.651 85.4866 188.848C85.4866 189.04 85.516 189.205 85.5746 189.344C85.6386 189.477 85.724 189.589 85.8306 189.68C85.9426 189.765 86.0706 189.829 86.2146 189.872C86.364 189.909 86.5266 189.928 86.7026 189.928C87.1506 189.928 87.5346 189.845 87.8546 189.68C88.18 189.509 88.4946 189.264 88.7986 188.944V187.432ZM84.2386 183.976C85.1613 183.117 86.26 182.688 87.5346 182.688C88.004 182.688 88.42 182.765 88.7826 182.92C89.1506 183.069 89.4573 183.283 89.7026 183.56C89.9533 183.837 90.1426 184.168 90.2706 184.552C90.404 184.931 90.4706 185.352 90.4706 185.816V191H89.7026C89.5373 191 89.412 190.976 89.3266 190.928C89.2413 190.875 89.1693 190.771 89.1106 190.616L88.9426 189.952C88.7346 190.139 88.5293 190.307 88.3266 190.456C88.124 190.6 87.9133 190.723 87.6946 190.824C87.4813 190.925 87.2493 191 86.9986 191.048C86.7533 191.101 86.4813 191.128 86.1826 191.128C85.852 191.128 85.5426 191.083 85.2546 190.992C84.972 190.901 84.7266 190.765 84.5186 190.584C84.3106 190.397 84.1453 190.168 84.0226 189.896C83.9053 189.624 83.8466 189.304 83.8466 188.936C83.8466 188.621 83.9293 188.315 84.0946 188.016C84.2653 187.717 84.5426 187.451 84.9266 187.216C85.316 186.976 85.8253 186.779 86.4546 186.624C87.0893 186.469 87.8706 186.381 88.7986 186.36V185.816C88.7986 185.229 88.6733 184.792 88.4226 184.504C88.172 184.216 87.804 184.072 87.3186 184.072C86.988 184.072 86.7106 184.115 86.4866 184.2C86.2626 184.28 86.068 184.368 85.9026 184.464C85.7373 184.56 85.5906 184.651 85.4626 184.736C85.3346 184.816 85.1986 184.856 85.0546 184.856C84.9373 184.856 84.836 184.827 84.7506 184.768C84.6706 184.704 84.604 184.627 84.5506 184.536L84.2386 183.976ZM103.646 182.84V191H101.926V185.888C101.926 185.776 101.931 185.653 101.942 185.52C101.953 185.387 101.969 185.251 101.99 185.112C101.937 185.229 101.883 185.339 101.83 185.44C101.782 185.536 101.729 185.624 101.67 185.704L98.1259 190.576C98.0619 190.677 97.9765 190.776 97.8699 190.872C97.7632 190.963 97.6432 191.008 97.5099 191.008H96.4699V182.84H98.1899V187.952C98.1899 188.064 98.1819 188.189 98.1659 188.328C98.1552 188.467 98.1392 188.605 98.1179 188.744C98.2245 188.499 98.3339 188.296 98.4459 188.136L101.99 183.272C102.054 183.165 102.139 183.067 102.246 182.976C102.353 182.885 102.473 182.84 102.606 182.84H103.646ZM113.248 182.712C113.851 182.712 114.395 182.811 114.88 183.008C115.371 183.205 115.787 183.485 116.128 183.848C116.475 184.211 116.741 184.651 116.928 185.168C117.115 185.685 117.208 186.267 117.208 186.912C117.208 187.557 117.115 188.139 116.928 188.656C116.741 189.173 116.475 189.616 116.128 189.984C115.787 190.347 115.371 190.627 114.88 190.824C114.395 191.021 113.851 191.12 113.248 191.12C112.64 191.12 112.091 191.021 111.6 190.824C111.115 190.627 110.699 190.347 110.352 189.984C110.005 189.616 109.739 189.173 109.552 188.656C109.365 188.139 109.272 187.557 109.272 186.912C109.272 186.267 109.365 185.685 109.552 185.168C109.739 184.651 110.005 184.211 110.352 183.848C110.699 183.485 111.115 183.205 111.6 183.008C112.091 182.811 112.64 182.712 113.248 182.712ZM113.248 189.776C113.984 189.776 114.531 189.531 114.888 189.04C115.251 188.544 115.432 187.837 115.432 186.92C115.432 186.003 115.251 185.296 114.888 184.8C114.531 184.299 113.984 184.048 113.248 184.048C112.501 184.048 111.947 184.299 111.584 184.8C111.221 185.296 111.04 186.003 111.04 186.92C111.04 187.837 111.221 188.544 111.584 189.04C111.947 189.531 112.501 189.776 113.248 189.776ZM122.621 189.848C123.362 189.848 123.917 189.616 124.285 189.152C124.653 188.683 124.837 188.008 124.837 187.128C124.837 186.259 124.658 185.589 124.301 185.12C123.943 184.645 123.402 184.408 122.677 184.408C121.962 184.408 121.407 184.627 121.013 185.064C120.623 185.501 120.429 186.141 120.429 186.984C120.429 187.901 120.61 188.608 120.973 189.104C121.341 189.6 121.89 189.848 122.621 189.848ZM123.189 181.168C122.671 181.205 122.226 181.312 121.852 181.488C121.485 181.664 121.178 181.901 120.933 182.2C120.693 182.499 120.509 182.856 120.381 183.272C120.258 183.688 120.186 184.152 120.164 184.664C120.431 184.2 120.818 183.829 121.325 183.552C121.831 183.275 122.423 183.136 123.101 183.136C123.645 183.136 124.133 183.232 124.565 183.424C124.997 183.616 125.362 183.885 125.661 184.232C125.965 184.579 126.197 184.997 126.357 185.488C126.522 185.979 126.605 186.523 126.605 187.12C126.605 187.728 126.509 188.28 126.317 188.776C126.13 189.267 125.863 189.688 125.517 190.04C125.17 190.387 124.751 190.653 124.261 190.84C123.77 191.027 123.223 191.12 122.621 191.12C122.05 191.12 121.522 191.027 121.037 190.84C120.551 190.648 120.13 190.341 119.773 189.92C119.415 189.493 119.135 188.936 118.933 188.248C118.735 187.56 118.637 186.717 118.637 185.72C118.637 184.877 118.714 184.099 118.868 183.384C119.023 182.669 119.274 182.045 119.621 181.512C119.967 180.973 120.421 180.541 120.981 180.216C121.546 179.885 122.234 179.688 123.045 179.624L125.949 179.384L126.045 180.28C126.066 180.477 126.036 180.643 125.957 180.776C125.882 180.909 125.749 180.981 125.557 180.992L123.189 181.168ZM135.179 182.84L130.683 193.32C130.624 193.443 130.552 193.539 130.467 193.608C130.387 193.677 130.261 193.712 130.091 193.712H128.819L130.323 190.448L126.995 182.84H128.491C128.635 182.84 128.744 182.875 128.819 182.944C128.899 183.008 128.957 183.085 128.995 183.176L130.939 187.808C130.987 187.941 131.029 188.075 131.067 188.208C131.109 188.336 131.149 188.469 131.187 188.608C131.229 188.469 131.272 188.333 131.315 188.2C131.357 188.067 131.405 187.933 131.459 187.8L133.323 183.176C133.36 183.08 133.421 183 133.507 182.936C133.597 182.872 133.696 182.84 133.803 182.84H135.179ZM139.538 189.808C140.007 189.808 140.378 189.696 140.65 189.472C140.927 189.243 141.066 188.936 141.066 188.552C141.066 188.387 141.042 188.232 140.994 188.088C140.946 187.944 140.863 187.821 140.746 187.72C140.629 187.613 140.471 187.531 140.274 187.472C140.082 187.413 139.839 187.384 139.546 187.384H137.938V189.808H139.538ZM137.938 183.976V186.304H139.354C139.567 186.304 139.762 186.275 139.938 186.216C140.119 186.152 140.274 186.067 140.402 185.96C140.535 185.848 140.637 185.717 140.706 185.568C140.781 185.413 140.818 185.243 140.818 185.056C140.818 184.923 140.794 184.792 140.746 184.664C140.698 184.531 140.615 184.413 140.498 184.312C140.386 184.211 140.237 184.131 140.05 184.072C139.863 184.008 139.631 183.976 139.354 183.976H137.938ZM139.41 182.84C139.917 182.84 140.354 182.891 140.722 182.992C141.09 183.088 141.391 183.224 141.626 183.4C141.866 183.576 142.042 183.784 142.154 184.024C142.266 184.264 142.322 184.523 142.322 184.8C142.322 184.976 142.298 185.16 142.25 185.352C142.202 185.544 142.119 185.728 142.002 185.904C141.885 186.075 141.725 186.232 141.522 186.376C141.325 186.52 141.071 186.632 140.762 186.712C141.343 186.819 141.802 187.032 142.138 187.352C142.479 187.667 142.65 188.088 142.65 188.616C142.65 189.021 142.567 189.373 142.402 189.672C142.237 189.971 142.01 190.219 141.722 190.416C141.439 190.613 141.109 190.76 140.73 190.856C140.357 190.952 139.962 191 139.546 191H136.298V182.84H139.41ZM147.522 189.752C147.773 189.752 147.992 189.72 148.178 189.656C148.37 189.587 148.528 189.496 148.65 189.384C148.778 189.267 148.872 189.128 148.93 188.968C148.994 188.808 149.026 188.632 149.026 188.44C149.026 188.269 148.997 188.109 148.938 187.96C148.885 187.805 148.797 187.672 148.674 187.56C148.557 187.443 148.402 187.352 148.21 187.288C148.018 187.219 147.784 187.184 147.506 187.184H145.922V189.752H147.522ZM147.498 185.944C148.064 185.944 148.541 186.013 148.93 186.152C149.32 186.285 149.634 186.467 149.874 186.696C150.114 186.925 150.288 187.192 150.394 187.496C150.501 187.795 150.554 188.107 150.554 188.432C150.554 188.811 150.488 189.157 150.354 189.472C150.221 189.781 150.024 190.051 149.762 190.28C149.506 190.509 149.189 190.688 148.81 190.816C148.437 190.939 148.008 191 147.522 191H144.282V182.84H145.922V185.944H147.498Z" fill="#222222"/>
<circle cx="14" cy="185" r="10" fill="#14BD5B"/>
<path d="M8.5 184L12.5 188L19 181.5" stroke="white" stroke-width="2"/>
<circle cx="82" cy="82" r="82" fill="#FD7461"/>
<mask id="mask0" mask-type="alpha" maskUnits="userSpaceOnUse" x="24" y="43" width="116" height="83">
<path d="M82 50C73 50 66 43 66 43C66 43 64 43 63 44C61.6742 45.3259 62 47 62 47L24 60L31 82L49 76L53 124C53 124 65 126 82 126C99 126 111 124 111 124L115 76L133 82L140 60L102 47C102 47 102.381 45.3814 101 44C100 43 98 43 98 43C98 43 91 50 82 50Z" fill="white"/>
</mask>
<g mask="url(#mask0)">
<path d="M82 41.7284C70.8276 41.7284 62.1379 33 62.1379 33C62.1379 33 59.6552 33 58.4138 34.2469C56.7679 35.9002 57.1724 37.9877 57.1724 37.9877L10 54.1975L18.6897 81.6296L31.0345 94.1481L46 134H118L132 94.1481L145.31 81.6296L154 54.1975L106.828 37.9877C106.828 37.9877 107.301 35.9694 105.586 34.2469C104.345 33 101.862 33 101.862 33C101.862 33 93.1724 41.7284 82 41.7284Z" fill="white"/>
<rect opacity="0.04" x="82" y="43" width="58" height="82" fill="black"/>
<path fill-rule="evenodd" clip-rule="evenodd" d="M107 34C107 45.598 96.3594 56 82 56C67.6405 56 57 45.598 57 34C57 22.402 67.6405 13 82 13C96.3594 13 107 22.402 107 34ZM143.479 60.0472L134.525 57L125.571 84.9527L135.525 88L143.479 60.0472ZM28.9999 57L20.0459 60.0472L28.0001 88L37.9544 84.9527L28.9999 57Z" fill="#326399"/>
</g>
<path d="M102.75 74C103.44 74 104 74.5596 104 75.25L104 86C104 90.4183 100.418 94 96 94C91.5817 94 88 90.4183 88 86L88 75.25C88 74.5596 88.5596 74 89.25 74L102.75 74Z" fill="white"/>
</svg>
