<svg width="164" height="194" viewBox="0 0 164 194" fill="none" xmlns="http://www.w3.org/2000/svg">
<path d="M32.2389 185.24C32.2389 186.093 32.1002 186.88 31.8229 187.6C31.5455 188.32 31.1535 188.941 30.6469 189.464C30.1455 189.981 29.5402 190.387 28.8309 190.68C28.1269 190.973 27.3429 191.12 26.4789 191.12C25.6202 191.12 24.8362 190.973 24.1269 190.68C23.4229 190.387 22.8175 189.981 22.3109 189.464C21.8042 188.941 21.4122 188.32 21.1349 187.6C20.8575 186.88 20.7189 186.093 20.7189 185.24C20.7189 184.387 20.8575 183.6 21.1349 182.88C21.4122 182.16 21.8042 181.539 22.3109 181.016C22.8175 180.493 23.4229 180.085 24.1269 179.792C24.8362 179.499 25.6202 179.352 26.4789 179.352C27.3429 179.352 28.1269 179.499 28.8309 179.792C29.5402 180.085 30.1455 180.493 30.6469 181.016C31.1535 181.539 31.5455 182.16 31.8229 182.88C32.1002 183.6 32.2389 184.387 32.2389 185.24ZM30.3269 185.24C30.3269 184.579 30.2362 183.984 30.0549 183.456C29.8789 182.928 29.6229 182.48 29.2869 182.112C28.9562 181.744 28.5535 181.461 28.0789 181.264C27.6042 181.067 27.0709 180.968 26.4789 180.968C25.8922 180.968 25.3615 181.067 24.8869 181.264C24.4122 181.461 24.0069 181.744 23.6709 182.112C23.3349 182.48 23.0762 182.928 22.8949 183.456C22.7135 183.984 22.6229 184.579 22.6229 185.24C22.6229 185.907 22.7135 186.504 22.8949 187.032C23.0762 187.56 23.3349 188.008 23.6709 188.376C24.0069 188.739 24.4122 189.019 24.8869 189.216C25.3615 189.408 25.8922 189.504 26.4789 189.504C27.0709 189.504 27.6042 189.408 28.0789 189.216C28.5535 189.019 28.9562 188.739 29.2869 188.376C29.6229 188.008 29.8789 187.56 30.0549 187.032C30.2362 186.504 30.3269 185.907 30.3269 185.24ZM38.7635 189.76V184.176H36.4755C36.4275 184.923 36.3582 185.592 36.2675 186.184C36.1822 186.776 36.0808 187.301 35.9635 187.76C35.8515 188.213 35.7262 188.605 35.5875 188.936C35.4488 189.261 35.3048 189.536 35.1555 189.76H38.7635ZM41.9235 189.704V193.248C41.9235 193.408 41.8755 193.533 41.7795 193.624C41.6888 193.72 41.5715 193.768 41.4275 193.768H40.3635V191H33.9075V193.28C33.9075 193.403 33.8675 193.515 33.7875 193.616C33.7128 193.717 33.5955 193.768 33.4355 193.768H32.3475V189.76H32.5955C32.7822 189.76 32.9662 189.733 33.1475 189.68C33.3288 189.621 33.5022 189.507 33.6675 189.336C33.8328 189.165 33.9902 188.925 34.1395 188.616C34.2888 188.301 34.4222 187.888 34.5395 187.376C34.6622 186.864 34.7688 186.237 34.8595 185.496C34.9502 184.755 35.0222 183.869 35.0755 182.84H40.4275V189.704H41.9235ZM48.4781 186C48.4781 185.712 48.4355 185.445 48.3501 185.2C48.2701 184.949 48.1501 184.733 47.9901 184.552C47.8301 184.365 47.6301 184.221 47.3901 184.12C47.1555 184.013 46.8835 183.96 46.5741 183.96C45.9501 183.96 45.4595 184.139 45.1021 184.496C44.7448 184.853 44.5181 185.355 44.4221 186H48.4781ZM44.3741 187.056C44.3955 187.52 44.4675 187.923 44.5901 188.264C44.7128 188.6 44.8755 188.88 45.0781 189.104C45.2861 189.328 45.5315 189.496 45.8141 189.608C46.1021 189.715 46.4221 189.768 46.7741 189.768C47.1101 189.768 47.4008 189.731 47.6461 189.656C47.8915 189.576 48.1048 189.491 48.2861 189.4C48.4675 189.304 48.6221 189.219 48.7501 189.144C48.8781 189.064 48.9955 189.024 49.1021 189.024C49.2408 189.024 49.3475 189.077 49.4221 189.184L49.9101 189.816C49.7075 190.056 49.4781 190.259 49.2221 190.424C48.9661 190.589 48.6941 190.725 48.4061 190.832C48.1181 190.933 47.8221 191.005 47.5181 191.048C47.2141 191.096 46.9181 191.12 46.6301 191.12C46.0648 191.12 45.5395 191.027 45.0541 190.84C44.5741 190.648 44.1555 190.368 43.7981 190C43.4461 189.632 43.1688 189.176 42.9661 188.632C42.7688 188.088 42.6701 187.461 42.6701 186.752C42.6701 186.187 42.7581 185.659 42.9341 185.168C43.1155 184.677 43.3715 184.251 43.7021 183.888C44.0381 183.525 44.4435 183.24 44.9181 183.032C45.3981 182.819 45.9395 182.712 46.5421 182.712C47.0435 182.712 47.5075 182.795 47.9341 182.96C48.3608 183.12 48.7288 183.357 49.0381 183.672C49.3475 183.987 49.5875 184.373 49.7581 184.832C49.9341 185.285 50.0221 185.803 50.0221 186.384C50.0221 186.651 49.9928 186.829 49.9341 186.92C49.8755 187.011 49.7688 187.056 49.6141 187.056H44.3741ZM63.188 191H62.004C61.7 191 61.4653 190.952 61.3 190.856C61.14 190.76 61.0147 190.608 60.924 190.4L59.54 188.016C59.428 187.813 59.2813 187.664 59.1 187.568C58.9187 187.472 58.7133 187.424 58.484 187.424H57.756V191.008H56.092V187.424H55.372C55.1373 187.424 54.9293 187.472 54.748 187.568C54.572 187.664 54.4253 187.813 54.308 188.016L52.924 190.4C52.8333 190.608 52.7053 190.76 52.54 190.856C52.38 190.952 52.148 191 51.844 191H50.66L52.676 187.632C52.8147 187.392 52.9693 187.197 53.14 187.048C53.316 186.893 53.5347 186.779 53.796 186.704C53.5987 186.629 53.428 186.528 53.284 186.4C53.1453 186.272 53.012 186.107 52.884 185.904L50.876 182.84H52.228C52.388 182.84 52.5347 182.883 52.668 182.968C52.8013 183.053 52.9053 183.165 52.98 183.304L54.532 185.752C54.6387 185.928 54.7667 186.059 54.916 186.144C55.0653 186.229 55.252 186.272 55.476 186.272H56.092V182.832H57.756V186.272H58.348C58.7907 186.272 59.1133 186.099 59.316 185.752L60.868 183.304C60.9427 183.165 61.0467 183.053 61.18 182.968C61.3187 182.883 61.468 182.84 61.628 182.84H62.972L60.964 185.904C60.836 186.107 60.7027 186.272 60.564 186.4C60.4253 186.528 60.2573 186.629 60.06 186.704C60.3213 186.779 60.5373 186.893 60.708 187.048C60.8787 187.197 61.0333 187.392 61.172 187.632L63.188 191ZM69.9354 189.76V184.176H67.6474C67.5994 184.923 67.53 185.592 67.4394 186.184C67.354 186.776 67.2527 187.301 67.1354 187.76C67.0234 188.213 66.898 188.605 66.7594 188.936C66.6207 189.261 66.4767 189.536 66.3274 189.76H69.9354ZM73.0954 189.704V193.248C73.0954 193.408 73.0474 193.533 72.9514 193.624C72.8607 193.72 72.7434 193.768 72.5994 193.768H71.5354V191H65.0794V193.28C65.0794 193.403 65.0394 193.515 64.9594 193.616C64.8847 193.717 64.7674 193.768 64.6074 193.768H63.5194V189.76H63.7674C63.954 189.76 64.138 189.733 64.3194 189.68C64.5007 189.621 64.674 189.507 64.8394 189.336C65.0047 189.165 65.162 188.925 65.3114 188.616C65.4607 188.301 65.594 187.888 65.7114 187.376C65.834 186.864 65.9407 186.237 66.0314 185.496C66.122 184.755 66.194 183.869 66.2474 182.84H71.5994V189.704H73.0954ZM78.7986 187.432C78.1853 187.453 77.668 187.504 77.2466 187.584C76.8253 187.659 76.484 187.757 76.2226 187.88C75.9613 187.997 75.772 188.139 75.6546 188.304C75.5426 188.469 75.4866 188.651 75.4866 188.848C75.4866 189.04 75.516 189.205 75.5746 189.344C75.6386 189.477 75.724 189.589 75.8306 189.68C75.9426 189.765 76.0706 189.829 76.2146 189.872C76.364 189.909 76.5266 189.928 76.7026 189.928C77.1506 189.928 77.5346 189.845 77.8546 189.68C78.18 189.509 78.4946 189.264 78.7986 188.944V187.432ZM74.2386 183.976C75.1613 183.117 76.26 182.688 77.5346 182.688C78.004 182.688 78.42 182.765 78.7826 182.92C79.1506 183.069 79.4573 183.283 79.7026 183.56C79.9533 183.837 80.1426 184.168 80.2706 184.552C80.404 184.931 80.4706 185.352 80.4706 185.816V191H79.7026C79.5373 191 79.412 190.976 79.3266 190.928C79.2413 190.875 79.1693 190.771 79.1106 190.616L78.9426 189.952C78.7346 190.139 78.5293 190.307 78.3266 190.456C78.124 190.6 77.9133 190.723 77.6946 190.824C77.4813 190.925 77.2493 191 76.9986 191.048C76.7533 191.101 76.4813 191.128 76.1826 191.128C75.852 191.128 75.5426 191.083 75.2546 190.992C74.972 190.901 74.7266 190.765 74.5186 190.584C74.3106 190.397 74.1453 190.168 74.0226 189.896C73.9053 189.624 73.8466 189.304 73.8466 188.936C73.8466 188.621 73.9293 188.315 74.0946 188.016C74.2653 187.717 74.5426 187.451 74.9266 187.216C75.316 186.976 75.8253 186.779 76.4546 186.624C77.0893 186.469 77.8706 186.381 78.7986 186.36V185.816C78.7986 185.229 78.6733 184.792 78.4226 184.504C78.172 184.216 77.804 184.072 77.3186 184.072C76.988 184.072 76.7106 184.115 76.4866 184.2C76.2626 184.28 76.068 184.368 75.9026 184.464C75.7373 184.56 75.5906 184.651 75.4626 184.736C75.3346 184.816 75.1986 184.856 75.0546 184.856C74.9373 184.856 74.836 184.827 74.7506 184.768C74.6706 184.704 74.604 184.627 74.5506 184.536L74.2386 183.976ZM93.6459 182.84V191H91.9259V185.888C91.9259 185.776 91.9312 185.653 91.9419 185.52C91.9525 185.387 91.9685 185.251 91.9899 185.112C91.9365 185.229 91.8832 185.339 91.8299 185.44C91.7819 185.536 91.7285 185.624 91.6699 185.704L88.1259 190.576C88.0619 190.677 87.9765 190.776 87.8699 190.872C87.7632 190.963 87.6432 191.008 87.5099 191.008H86.4699V182.84H88.1899V187.952C88.1899 188.064 88.1819 188.189 88.1659 188.328C88.1552 188.467 88.1392 188.605 88.1179 188.744C88.2245 188.499 88.3339 188.296 88.4459 188.136L91.9899 183.272C92.0539 183.165 92.1392 183.067 92.2459 182.976C92.3525 182.885 92.4725 182.84 92.6059 182.84H93.6459ZM103.248 182.712C103.851 182.712 104.395 182.811 104.88 183.008C105.371 183.205 105.787 183.485 106.128 183.848C106.475 184.211 106.741 184.651 106.928 185.168C107.115 185.685 107.208 186.267 107.208 186.912C107.208 187.557 107.115 188.139 106.928 188.656C106.741 189.173 106.475 189.616 106.128 189.984C105.787 190.347 105.371 190.627 104.88 190.824C104.395 191.021 103.851 191.12 103.248 191.12C102.64 191.12 102.091 191.021 101.6 190.824C101.115 190.627 100.699 190.347 100.352 189.984C100.005 189.616 99.7385 189.173 99.5519 188.656C99.3652 188.139 99.2719 187.557 99.2719 186.912C99.2719 186.267 99.3652 185.685 99.5519 185.168C99.7385 184.651 100.005 184.211 100.352 183.848C100.699 183.485 101.115 183.205 101.6 183.008C102.091 182.811 102.64 182.712 103.248 182.712ZM103.248 189.776C103.984 189.776 104.531 189.531 104.888 189.04C105.251 188.544 105.432 187.837 105.432 186.92C105.432 186.003 105.251 185.296 104.888 184.8C104.531 184.299 103.984 184.048 103.248 184.048C102.501 184.048 101.947 184.299 101.584 184.8C101.221 185.296 101.04 186.003 101.04 186.92C101.04 187.837 101.221 188.544 101.584 189.04C101.947 189.531 102.501 189.776 103.248 189.776ZM112.621 189.848C113.362 189.848 113.917 189.616 114.285 189.152C114.653 188.683 114.837 188.008 114.837 187.128C114.837 186.259 114.658 185.589 114.301 185.12C113.943 184.645 113.402 184.408 112.677 184.408C111.962 184.408 111.407 184.627 111.013 185.064C110.623 185.501 110.429 186.141 110.429 186.984C110.429 187.901 110.61 188.608 110.973 189.104C111.341 189.6 111.89 189.848 112.621 189.848ZM113.189 181.168C112.671 181.205 112.226 181.312 111.852 181.488C111.485 181.664 111.178 181.901 110.933 182.2C110.693 182.499 110.509 182.856 110.381 183.272C110.258 183.688 110.186 184.152 110.164 184.664C110.431 184.2 110.818 183.829 111.325 183.552C111.831 183.275 112.423 183.136 113.101 183.136C113.645 183.136 114.133 183.232 114.565 183.424C114.997 183.616 115.362 183.885 115.661 184.232C115.965 184.579 116.197 184.997 116.357 185.488C116.522 185.979 116.605 186.523 116.605 187.12C116.605 187.728 116.509 188.28 116.317 188.776C116.13 189.267 115.863 189.688 115.517 190.04C115.17 190.387 114.751 190.653 114.261 190.84C113.77 191.027 113.223 191.12 112.621 191.12C112.05 191.12 111.522 191.027 111.037 190.84C110.551 190.648 110.13 190.341 109.773 189.92C109.415 189.493 109.135 188.936 108.933 188.248C108.735 187.56 108.637 186.717 108.637 185.72C108.637 184.877 108.714 184.099 108.868 183.384C109.023 182.669 109.274 182.045 109.621 181.512C109.967 180.973 110.421 180.541 110.981 180.216C111.546 179.885 112.234 179.688 113.045 179.624L115.949 179.384L116.045 180.28C116.066 180.477 116.036 180.643 115.957 180.776C115.882 180.909 115.749 180.981 115.557 180.992L113.189 181.168ZM125.179 182.84L120.683 193.32C120.624 193.443 120.552 193.539 120.467 193.608C120.387 193.677 120.261 193.712 120.091 193.712H118.819L120.323 190.448L116.995 182.84H118.491C118.635 182.84 118.744 182.875 118.819 182.944C118.899 183.008 118.957 183.085 118.995 183.176L120.939 187.808C120.987 187.941 121.029 188.075 121.067 188.208C121.109 188.336 121.149 188.469 121.187 188.608C121.229 188.469 121.272 188.333 121.315 188.2C121.357 188.067 121.405 187.933 121.459 187.8L123.323 183.176C123.36 183.08 123.421 183 123.507 182.936C123.597 182.872 123.696 182.84 123.803 182.84H125.179ZM129.538 189.808C130.007 189.808 130.378 189.696 130.65 189.472C130.927 189.243 131.066 188.936 131.066 188.552C131.066 188.387 131.042 188.232 130.994 188.088C130.946 187.944 130.863 187.821 130.746 187.72C130.629 187.613 130.471 187.531 130.274 187.472C130.082 187.413 129.839 187.384 129.546 187.384H127.938V189.808H129.538ZM127.938 183.976V186.304H129.354C129.567 186.304 129.762 186.275 129.938 186.216C130.119 186.152 130.274 186.067 130.402 185.96C130.535 185.848 130.637 185.717 130.706 185.568C130.781 185.413 130.818 185.243 130.818 185.056C130.818 184.923 130.794 184.792 130.746 184.664C130.698 184.531 130.615 184.413 130.498 184.312C130.386 184.211 130.237 184.131 130.05 184.072C129.863 184.008 129.631 183.976 129.354 183.976H127.938ZM129.41 182.84C129.917 182.84 130.354 182.891 130.722 182.992C131.09 183.088 131.391 183.224 131.626 183.4C131.866 183.576 132.042 183.784 132.154 184.024C132.266 184.264 132.322 184.523 132.322 184.8C132.322 184.976 132.298 185.16 132.25 185.352C132.202 185.544 132.119 185.728 132.002 185.904C131.885 186.075 131.725 186.232 131.522 186.376C131.325 186.52 131.071 186.632 130.762 186.712C131.343 186.819 131.802 187.032 132.138 187.352C132.479 187.667 132.65 188.088 132.65 188.616C132.65 189.021 132.567 189.373 132.402 189.672C132.237 189.971 132.01 190.219 131.722 190.416C131.439 190.613 131.109 190.76 130.73 190.856C130.357 190.952 129.962 191 129.546 191H126.298V182.84H129.41ZM137.522 189.752C137.773 189.752 137.992 189.72 138.178 189.656C138.37 189.587 138.528 189.496 138.65 189.384C138.778 189.267 138.872 189.128 138.93 188.968C138.994 188.808 139.026 188.632 139.026 188.44C139.026 188.269 138.997 188.109 138.938 187.96C138.885 187.805 138.797 187.672 138.674 187.56C138.557 187.443 138.402 187.352 138.21 187.288C138.018 187.219 137.784 187.184 137.506 187.184H135.922V189.752H137.522ZM137.498 185.944C138.064 185.944 138.541 186.013 138.93 186.152C139.32 186.285 139.634 186.467 139.874 186.696C140.114 186.925 140.288 187.192 140.394 187.496C140.501 187.795 140.554 188.107 140.554 188.432C140.554 188.811 140.488 189.157 140.354 189.472C140.221 189.781 140.024 190.051 139.762 190.28C139.506 190.509 139.189 190.688 138.81 190.816C138.437 190.939 138.008 191 137.522 191H134.282V182.84H135.922V185.944H137.498Z" fill="#007FEF"/>
<circle cx="82" cy="82" r="81" stroke="#FD7461" stroke-width="2"/>
<path fill-rule="evenodd" clip-rule="evenodd" d="M68.8251 39.1683L68.8226 39.1657L68.8196 39.1628L68.8493 39.1915C68.8817 39.2226 68.939 39.2768 69.02 39.351C69.1822 39.4996 69.4379 39.7266 69.7772 40.006C70.4592 40.5677 71.4607 41.3259 72.7048 42.0832C75.2425 43.6279 78.5112 45 82 45C85.4889 45 88.7576 43.6279 91.2952 42.0832C92.5393 41.3259 93.5408 40.5677 94.2228 40.006C94.5622 39.7266 94.8178 39.4996 94.98 39.351C95.061 39.2768 95.1183 39.2226 95.1507 39.1915L95.1748 39.1683L95.1733 39.1699M95.1806 39.1626C95.9298 38.4181 96.9434 38 98 38V42C98 42 91 49 82 49C73 49 66 42 66 42L66 38C67.0565 38 68.0704 38.4184 68.8196 39.1628M102 46C102 46 102.381 44.3814 101 43C100 42 98 42 98 42C98 38 98.002 38 98.002 38L98.0082 38L98.0173 38L98.0378 38.0002L98.0883 38.0008C98.1261 38.0014 98.1722 38.0025 98.2258 38.0043C98.3326 38.008 98.4713 38.0148 98.6349 38.0274C98.9567 38.0522 99.4029 38.1014 99.9095 38.2027C100.769 38.3746 102.478 38.8214 103.828 40.1716C104.744 41.0867 105.302 42.0816 105.629 43.0139L141.295 55.2153C143.353 55.9195 144.471 58.1397 143.812 60.2128L136.812 82.2128C136.487 83.2328 135.767 84.0801 134.813 84.5654C133.859 85.0506 132.751 85.1332 131.735 84.7947L118.564 80.4042L114.986 123.332C114.813 125.405 113.08 127 111 127C111 127 93.332 128 82 128C70.6681 128 53 127 53 127C50.9197 127 49.1866 125.405 49.0138 123.332L45.4365 80.4042L32.2649 84.7947C31.2495 85.1332 30.1408 85.0506 29.1867 84.5654C28.2326 84.0801 27.5129 83.2328 27.1883 82.2128L20.1883 60.2128C19.5287 58.1397 20.6469 55.9195 22.7053 55.2153L58.3893 43.0076C58.7097 42.0865 59.2572 41.0859 60.1716 40.1716L63 43C61.6742 44.3259 62 46 62 46L24 59L31 81L49 75L53 123C53 123 70.6681 124 82 124C93.332 124 111 123 111 123L115 75L133 81L140 59L102 46ZM68.8196 39.1628C68.8182 39.1613 68.8179 39.161 68.8196 39.1628V39.1628ZM63 43L60.1716 40.1716C61.5217 38.8214 63.2308 38.3746 64.0906 38.2027C64.5971 38.1014 65.0433 38.0522 65.3651 38.0274C65.5288 38.0148 65.6675 38.008 65.7743 38.0043C65.8279 38.0025 65.874 38.0014 65.9118 38.0008L65.9623 38.0002L65.9828 38L65.9918 38L65.9981 38C65.9981 38 66 38 66 42C66 42 64 42 63 43Z" fill="#FD7461"/>
<path d="M60.5 44.8123C65.1799 50.3584 73.0634 55 82 55C90.9366 55 98.8201 50.3584 103.5 44.8123" stroke="#FD7461" stroke-width="2"/>
</svg>
