<svg width="164" height="214" viewBox="0 0 164 214" fill="none" xmlns="http://www.w3.org/2000/svg">
<path d="M58.2882 181.04H54.6962V191H52.8322V181.04H49.2322V179.48H58.2882V181.04ZM62.9859 186C62.9859 185.712 62.9433 185.445 62.8579 185.2C62.7779 184.949 62.6579 184.733 62.4979 184.552C62.3379 184.365 62.1379 184.221 61.8979 184.12C61.6633 184.013 61.3913 183.96 61.0819 183.96C60.4579 183.96 59.9673 184.139 59.6099 184.496C59.2526 184.853 59.0259 185.355 58.9299 186H62.9859ZM58.8819 187.056C58.9033 187.52 58.9753 187.923 59.0979 188.264C59.2206 188.6 59.3833 188.88 59.5859 189.104C59.7939 189.328 60.0393 189.496 60.3219 189.608C60.6099 189.715 60.9299 189.768 61.2819 189.768C61.6179 189.768 61.9086 189.731 62.1539 189.656C62.3993 189.576 62.6126 189.491 62.7939 189.4C62.9753 189.304 63.1299 189.219 63.2579 189.144C63.3859 189.064 63.5033 189.024 63.6099 189.024C63.7486 189.024 63.8553 189.077 63.9299 189.184L64.4179 189.816C64.2153 190.056 63.9859 190.259 63.7299 190.424C63.4739 190.589 63.2019 190.725 62.9139 190.832C62.6259 190.933 62.3299 191.005 62.0259 191.048C61.7219 191.096 61.4259 191.12 61.1379 191.12C60.5726 191.12 60.0473 191.027 59.5619 190.84C59.0819 190.648 58.6633 190.368 58.3059 190C57.9539 189.632 57.6766 189.176 57.4739 188.632C57.2766 188.088 57.1779 187.461 57.1779 186.752C57.1779 186.187 57.2659 185.659 57.4419 185.168C57.6233 184.677 57.8793 184.251 58.2099 183.888C58.5459 183.525 58.9513 183.24 59.4259 183.032C59.9059 182.819 60.4473 182.712 61.0499 182.712C61.5513 182.712 62.0153 182.795 62.4419 182.96C62.8686 183.12 63.2366 183.357 63.5459 183.672C63.8553 183.987 64.0953 184.373 64.2659 184.832C64.4419 185.285 64.5299 185.803 64.5299 186.384C64.5299 186.651 64.5006 186.829 64.4419 186.92C64.3833 187.011 64.2766 187.056 64.1219 187.056H58.8819ZM73.0326 191H71.3846C71.2512 191 71.1446 190.965 71.0646 190.896C70.9899 190.827 70.9286 190.749 70.8806 190.664L69.0006 187.648C68.9526 187.829 68.8886 187.987 68.8086 188.12L67.1046 190.664C67.0459 190.749 66.9792 190.827 66.9046 190.896C66.8352 190.965 66.7419 191 66.6246 191H65.0886L67.9126 186.792L65.2006 182.84H66.8486C66.9819 182.84 67.0779 182.861 67.1366 182.904C67.2006 182.941 67.2566 183 67.3046 183.08L69.1526 185.96C69.2006 185.784 69.2752 185.616 69.3766 185.456L70.9366 183.112C71.0432 182.931 71.1792 182.84 71.3446 182.84H72.9206L70.2086 186.72L73.0326 191ZM81.1564 182.84V191H79.4444V187.296H75.9164V191H74.1964V182.84H75.9164V186H79.4444V182.84H81.1564ZM90.4349 182.84V191H88.7149V185.888C88.7149 185.776 88.7203 185.653 88.7309 185.52C88.7416 185.387 88.7576 185.251 88.7789 185.112C88.7256 185.229 88.6723 185.339 88.6189 185.44C88.5709 185.536 88.5176 185.624 88.4589 185.704L84.9149 190.576C84.8509 190.677 84.7656 190.776 84.6589 190.872C84.5523 190.963 84.4323 191.008 84.2989 191.008H83.2589V182.84H84.9789V187.952C84.9789 188.064 84.9709 188.189 84.9549 188.328C84.9443 188.467 84.9283 188.605 84.9069 188.744C85.0136 188.499 85.1229 188.296 85.2349 188.136L88.7789 183.272C88.8429 183.165 88.9283 183.067 89.0349 182.976C89.1416 182.885 89.2616 182.84 89.3949 182.84H90.4349ZM97.4366 183.304C97.5219 183.165 97.6366 183.053 97.7806 182.968C97.9299 182.883 98.0846 182.84 98.2446 182.84H99.5886L97.5806 185.904C97.4526 186.112 97.3192 186.28 97.1806 186.408C97.0419 186.536 96.8712 186.635 96.6686 186.704C96.9299 186.779 97.1459 186.893 97.3166 187.048C97.4926 187.197 97.6499 187.392 97.7886 187.632L99.8126 191H98.6286C98.3246 191 98.0872 190.949 97.9166 190.848C97.7512 190.747 97.6099 190.597 97.4926 190.4L96.1086 188.016C95.9966 187.813 95.8499 187.664 95.6686 187.568C95.4872 187.472 95.2819 187.424 95.0526 187.424H94.2446V191.008H92.5246V182.84H94.2446V186.272H94.9406C95.1646 186.272 95.3512 186.229 95.5006 186.144C95.6499 186.059 95.7779 185.928 95.8846 185.752L97.4366 183.304ZM105.385 187.432C104.771 187.453 104.254 187.504 103.833 187.584C103.411 187.659 103.07 187.757 102.809 187.88C102.547 187.997 102.358 188.139 102.241 188.304C102.129 188.469 102.073 188.651 102.073 188.848C102.073 189.04 102.102 189.205 102.161 189.344C102.225 189.477 102.31 189.589 102.417 189.68C102.529 189.765 102.657 189.829 102.801 189.872C102.95 189.909 103.113 189.928 103.289 189.928C103.737 189.928 104.121 189.845 104.441 189.68C104.766 189.509 105.081 189.264 105.385 188.944V187.432ZM100.825 183.976C101.747 183.117 102.846 182.688 104.121 182.688C104.59 182.688 105.006 182.765 105.369 182.92C105.737 183.069 106.043 183.283 106.289 183.56C106.539 183.837 106.729 184.168 106.857 184.552C106.99 184.931 107.057 185.352 107.057 185.816V191H106.289C106.123 191 105.998 190.976 105.913 190.928C105.827 190.875 105.755 190.771 105.697 190.616L105.529 189.952C105.321 190.139 105.115 190.307 104.913 190.456C104.71 190.6 104.499 190.723 104.281 190.824C104.067 190.925 103.835 191 103.585 191.048C103.339 191.101 103.067 191.128 102.769 191.128C102.438 191.128 102.129 191.083 101.841 190.992C101.558 190.901 101.313 190.765 101.105 190.584C100.897 190.397 100.731 190.168 100.609 189.896C100.491 189.624 100.433 189.304 100.433 188.936C100.433 188.621 100.515 188.315 100.681 188.016C100.851 187.717 101.129 187.451 101.513 187.216C101.902 186.976 102.411 186.779 103.041 186.624C103.675 186.469 104.457 186.381 105.385 186.36V185.816C105.385 185.229 105.259 184.792 105.009 184.504C104.758 184.216 104.39 184.072 103.905 184.072C103.574 184.072 103.297 184.115 103.073 184.2C102.849 184.28 102.654 184.368 102.489 184.464C102.323 184.56 102.177 184.651 102.049 184.736C101.921 184.816 101.785 184.856 101.641 184.856C101.523 184.856 101.422 184.827 101.337 184.768C101.257 184.704 101.19 184.627 101.137 184.536L100.825 183.976ZM34.4896 202.84V211H32.7696V205.888C32.7696 205.776 32.775 205.653 32.7856 205.52C32.7963 205.387 32.8123 205.251 32.8336 205.112C32.7803 205.229 32.727 205.339 32.6736 205.44C32.6256 205.536 32.5723 205.624 32.5136 205.704L28.9696 210.576C28.9056 210.677 28.8203 210.776 28.7136 210.872C28.607 210.963 28.487 211.008 28.3536 211.008H27.3136V202.84H29.0336V207.952C29.0336 208.064 29.0256 208.189 29.0096 208.328C28.999 208.467 28.983 208.605 28.9616 208.744C29.0683 208.499 29.1776 208.296 29.2896 208.136L32.8336 203.272C32.8976 203.165 32.983 203.067 33.0896 202.976C33.1963 202.885 33.3163 202.84 33.4496 202.84H34.4896ZM40.0036 203.816C40.3556 203.464 40.7556 203.192 41.2036 203C41.657 202.808 42.1796 202.712 42.7716 202.712C43.401 202.712 43.9583 202.819 44.4436 203.032C44.929 203.24 45.337 203.531 45.6676 203.904C45.9983 204.277 46.249 204.723 46.4196 205.24C46.5903 205.752 46.6756 206.309 46.6756 206.912C46.6756 207.579 46.5796 208.173 46.3876 208.696C46.201 209.213 45.9423 209.653 45.6116 210.016C45.2863 210.373 44.9023 210.648 44.4596 210.84C44.017 211.027 43.5423 211.12 43.0356 211.12C42.7476 211.12 42.4596 211.096 42.1716 211.048C41.8836 211.005 41.6036 210.933 41.3316 210.832C41.065 210.725 40.8116 210.589 40.5716 210.424C40.3316 210.259 40.113 210.056 39.9156 209.816L40.3796 209.24C40.4596 209.128 40.5663 209.072 40.6996 209.072C40.8116 209.072 40.9156 209.109 41.0116 209.184C41.113 209.259 41.2356 209.341 41.3796 209.432C41.5236 209.523 41.7023 209.605 41.9156 209.68C42.129 209.755 42.401 209.792 42.7316 209.792C43.0356 209.792 43.313 209.741 43.5636 209.64C43.8196 209.533 44.0436 209.381 44.2356 209.184C44.4276 208.981 44.585 208.733 44.7076 208.44C44.8303 208.141 44.9103 207.803 44.9476 207.424H41.2916V206.24H44.9316C44.8356 205.547 44.5956 205.008 44.2116 204.624C43.8276 204.235 43.313 204.04 42.6676 204.04C42.3796 204.04 42.137 204.069 41.9396 204.128C41.7476 204.187 41.5796 204.251 41.4356 204.32C41.297 204.389 41.177 204.453 41.0756 204.512C40.9796 204.571 40.8863 204.6 40.7956 204.6C40.705 204.6 40.6356 204.581 40.5876 204.544C40.5396 204.507 40.489 204.456 40.4356 204.392L40.0036 203.816ZM55.4865 211H53.7665V204.176H51.4945C51.4305 205.195 51.3318 206.075 51.1985 206.816C51.0705 207.552 50.9158 208.176 50.7345 208.688C50.5532 209.2 50.3505 209.616 50.1265 209.936C49.9025 210.251 49.6652 210.496 49.4145 210.672C49.1638 210.848 48.9052 210.965 48.6385 211.024C48.3772 211.083 48.1132 211.112 47.8465 211.112C47.3292 211.112 47.0705 211.027 47.0705 210.856V209.776H47.5185C47.6945 209.776 47.8732 209.747 48.0545 209.688C48.2412 209.629 48.4198 209.515 48.5905 209.344C48.7612 209.168 48.9238 208.923 49.0785 208.608C49.2385 208.293 49.3825 207.88 49.5105 207.368C49.6438 206.851 49.7585 206.224 49.8545 205.488C49.9505 204.747 50.0252 203.864 50.0785 202.84H55.4865V211ZM62.9313 206C62.9313 205.712 62.8886 205.445 62.8033 205.2C62.7233 204.949 62.6033 204.733 62.4433 204.552C62.2833 204.365 62.0833 204.221 61.8433 204.12C61.6086 204.013 61.3366 203.96 61.0273 203.96C60.4033 203.96 59.9126 204.139 59.5553 204.496C59.1979 204.853 58.9713 205.355 58.8753 206H62.9313ZM58.8273 207.056C58.8486 207.52 58.9206 207.923 59.0433 208.264C59.1659 208.6 59.3286 208.88 59.5313 209.104C59.7393 209.328 59.9846 209.496 60.2673 209.608C60.5553 209.715 60.8753 209.768 61.2273 209.768C61.5633 209.768 61.8539 209.731 62.0993 209.656C62.3446 209.576 62.5579 209.491 62.7393 209.4C62.9206 209.304 63.0753 209.219 63.2033 209.144C63.3313 209.064 63.4486 209.024 63.5553 209.024C63.6939 209.024 63.8006 209.077 63.8753 209.184L64.3633 209.816C64.1606 210.056 63.9313 210.259 63.6753 210.424C63.4193 210.589 63.1473 210.725 62.8593 210.832C62.5713 210.933 62.2753 211.005 61.9713 211.048C61.6673 211.096 61.3713 211.12 61.0833 211.12C60.5179 211.12 59.9926 211.027 59.5073 210.84C59.0273 210.648 58.6086 210.368 58.2513 210C57.8993 209.632 57.6219 209.176 57.4193 208.632C57.2219 208.088 57.1233 207.461 57.1233 206.752C57.1233 206.187 57.2113 205.659 57.3873 205.168C57.5686 204.677 57.8246 204.251 58.1553 203.888C58.4913 203.525 58.8966 203.24 59.3713 203.032C59.8513 202.819 60.3926 202.712 60.9953 202.712C61.4966 202.712 61.9606 202.795 62.3873 202.96C62.8139 203.12 63.1819 203.357 63.4913 203.672C63.8006 203.987 64.0406 204.373 64.2113 204.832C64.3873 205.285 64.4753 205.803 64.4753 206.384C64.4753 206.651 64.4459 206.829 64.3873 206.92C64.3286 207.011 64.2219 207.056 64.0673 207.056H58.8273ZM70.9913 203.304C71.0766 203.165 71.1913 203.053 71.3353 202.968C71.4846 202.883 71.6393 202.84 71.7993 202.84H73.1433L71.1353 205.904C71.0073 206.112 70.8739 206.28 70.7353 206.408C70.5966 206.536 70.4259 206.635 70.2233 206.704C70.4846 206.779 70.7006 206.893 70.8713 207.048C71.0473 207.197 71.2046 207.392 71.3433 207.632L73.3673 211H72.1833C71.8793 211 71.6419 210.949 71.4713 210.848C71.3059 210.747 71.1646 210.597 71.0473 210.4L69.6633 208.016C69.5513 207.813 69.4046 207.664 69.2233 207.568C69.0419 207.472 68.8366 207.424 68.6073 207.424H67.7993V211.008H66.0793V202.84H67.7993V206.272H68.4953C68.7193 206.272 68.9059 206.229 69.0553 206.144C69.2046 206.059 69.3326 205.928 69.4392 205.752L70.9913 203.304ZM81.4753 204.136H78.4673V211H76.7473V204.136H73.7313V202.84H81.4753V204.136ZM84.4555 208.952C84.6955 209.261 84.9568 209.48 85.2395 209.608C85.5275 209.731 85.8448 209.792 86.1915 209.792C86.8635 209.792 87.3862 209.547 87.7595 209.056C88.1382 208.565 88.3275 207.835 88.3275 206.864C88.3275 206.363 88.2848 205.936 88.1995 205.584C88.1142 205.227 87.9915 204.936 87.8315 204.712C87.6715 204.488 87.4768 204.325 87.2475 204.224C87.0182 204.123 86.7595 204.072 86.4715 204.072C86.0342 204.072 85.6555 204.168 85.3355 204.36C85.0208 204.547 84.7275 204.816 84.4555 205.168V208.952ZM84.3675 204.024C84.7088 203.624 85.0955 203.301 85.5275 203.056C85.9648 202.811 86.4715 202.688 87.0475 202.688C87.5062 202.688 87.9222 202.781 88.2955 202.968C88.6688 203.149 88.9888 203.416 89.2555 203.768C89.5222 204.12 89.7275 204.557 89.8715 205.08C90.0208 205.597 90.0955 206.192 90.0955 206.864C90.0955 207.467 90.0128 208.029 89.8475 208.552C89.6875 209.069 89.4555 209.52 89.1515 209.904C88.8475 210.283 88.4795 210.581 88.0475 210.8C87.6155 211.013 87.1275 211.12 86.5835 211.12C86.1035 211.12 85.6955 211.043 85.3595 210.888C85.0288 210.733 84.7275 210.52 84.4555 210.248V213.712H82.7355V202.84H83.7755C84.0102 202.84 84.1595 202.949 84.2235 203.168L84.3675 204.024ZM95.2948 202.712C95.8974 202.712 96.4414 202.811 96.9268 203.008C97.4174 203.205 97.8334 203.485 98.1748 203.848C98.5214 204.211 98.7881 204.651 98.9748 205.168C99.1614 205.685 99.2548 206.267 99.2548 206.912C99.2548 207.557 99.1614 208.139 98.9748 208.656C98.7881 209.173 98.5214 209.616 98.1748 209.984C97.8334 210.347 97.4174 210.627 96.9268 210.824C96.4414 211.021 95.8974 211.12 95.2948 211.12C94.6868 211.12 94.1374 211.021 93.6468 210.824C93.1614 210.627 92.7454 210.347 92.3988 209.984C92.0521 209.616 91.7854 209.173 91.5988 208.656C91.4121 208.139 91.3188 207.557 91.3188 206.912C91.3188 206.267 91.4121 205.685 91.5988 205.168C91.7854 204.651 92.0521 204.211 92.3988 203.848C92.7454 203.485 93.1614 203.205 93.6468 203.008C94.1374 202.811 94.6868 202.712 95.2948 202.712ZM95.2948 209.776C96.0308 209.776 96.5774 209.531 96.9348 209.04C97.2974 208.544 97.4788 207.837 97.4788 206.92C97.4788 206.003 97.2974 205.296 96.9348 204.8C96.5774 204.299 96.0308 204.048 95.2948 204.048C94.5481 204.048 93.9934 204.299 93.6308 204.8C93.2681 205.296 93.0868 206.003 93.0868 206.92C93.0868 207.837 93.2681 208.544 93.6308 209.04C93.9934 209.531 94.5481 209.776 95.2948 209.776ZM107.867 202.84V211H106.155V207.296H102.627V211H100.907V202.84H102.627V206H106.155V202.84H107.867ZM117.146 202.84V211H115.426V205.888C115.426 205.776 115.431 205.653 115.442 205.52C115.453 205.387 115.469 205.251 115.49 205.112C115.437 205.229 115.383 205.339 115.33 205.44C115.282 205.536 115.229 205.624 115.17 205.704L111.626 210.576C111.562 210.677 111.477 210.776 111.37 210.872C111.263 210.963 111.143 211.008 111.01 211.008H109.97V202.84H111.69V207.952C111.69 208.064 111.682 208.189 111.666 208.328C111.655 208.467 111.639 208.605 111.618 208.744C111.725 208.499 111.834 208.296 111.946 208.136L115.49 203.272C115.554 203.165 115.639 203.067 115.746 202.976C115.853 202.885 115.973 202.84 116.106 202.84H117.146ZM124.148 203.304C124.233 203.165 124.348 203.053 124.492 202.968C124.641 202.883 124.796 202.84 124.956 202.84H126.3L124.292 205.904C124.164 206.112 124.03 206.28 123.892 206.408C123.753 206.536 123.582 206.635 123.38 206.704C123.641 206.779 123.857 206.893 124.028 207.048C124.204 207.197 124.361 207.392 124.5 207.632L126.524 211H125.34C125.036 211 124.798 210.949 124.628 210.848C124.462 210.747 124.321 210.597 124.204 210.4L122.82 208.016C122.708 207.813 122.561 207.664 122.38 207.568C122.198 207.472 121.993 207.424 121.764 207.424H120.956V211.008H119.236V202.84H120.956V206.272H121.652C121.876 206.272 122.062 206.229 122.212 206.144C122.361 206.059 122.489 205.928 122.595 205.752L124.148 203.304ZM132.096 207.432C131.482 207.453 130.965 207.504 130.544 207.584C130.122 207.659 129.781 207.757 129.52 207.88C129.258 207.997 129.069 208.139 128.952 208.304C128.84 208.469 128.784 208.651 128.784 208.848C128.784 209.04 128.813 209.205 128.872 209.344C128.936 209.477 129.021 209.589 129.128 209.68C129.24 209.765 129.368 209.829 129.512 209.872C129.661 209.909 129.824 209.928 130 209.928C130.448 209.928 130.832 209.845 131.152 209.68C131.477 209.509 131.792 209.264 132.096 208.944V207.432ZM127.536 203.976C128.458 203.117 129.557 202.688 130.832 202.688C131.301 202.688 131.717 202.765 132.08 202.92C132.448 203.069 132.754 203.283 133 203.56C133.25 203.837 133.44 204.168 133.568 204.552C133.701 204.931 133.768 205.352 133.768 205.816V211H133C132.834 211 132.709 210.976 132.624 210.928C132.538 210.875 132.466 210.771 132.408 210.616L132.24 209.952C132.032 210.139 131.826 210.307 131.624 210.456C131.421 210.6 131.21 210.723 130.992 210.824C130.778 210.925 130.546 211 130.296 211.048C130.05 211.101 129.778 211.128 129.48 211.128C129.149 211.128 128.84 211.083 128.552 210.992C128.269 210.901 128.024 210.765 127.816 210.584C127.608 210.397 127.442 210.168 127.32 209.896C127.202 209.624 127.144 209.304 127.144 208.936C127.144 208.621 127.226 208.315 127.392 208.016C127.562 207.717 127.84 207.451 128.224 207.216C128.613 206.976 129.122 206.779 129.752 206.624C130.386 206.469 131.168 206.381 132.096 206.36V205.816C132.096 205.229 131.97 204.792 131.72 204.504C131.469 204.216 131.101 204.072 130.616 204.072C130.285 204.072 130.008 204.115 129.784 204.2C129.56 204.28 129.365 204.368 129.2 204.464C129.034 204.56 128.888 204.651 128.76 204.736C128.632 204.816 128.496 204.856 128.352 204.856C128.234 204.856 128.133 204.827 128.048 204.768C127.968 204.704 127.901 204.627 127.848 204.536L127.536 203.976Z" fill="#222222"/>
<circle cx="33" cy="185" r="10" fill="#14BD5B"/>
<path d="M27.5 184L31.5 188L38 181.5" stroke="white" stroke-width="2"/>
<circle cx="82" cy="82" r="82" fill="#38ACFF"/>
<path d="M32 45.4237C32 42.1695 34.1505 40 37.3763 40H126.624C129.849 40 132 42.1695 132 45.4237V104H32V45.4237Z" fill="url(#paint0_linear)"/>
<mask id="mask0" mask-type="alpha" maskUnits="userSpaceOnUse" x="40" y="48" width="85" height="48">
<path d="M40 49.7778C40 48.8889 40.9655 48 41.931 48H122.069C123.035 48 124 48.8889 124 49.7778C124 49.7778 124 76.7301 124 94C124 95 123 96 122.069 96C90.7734 96 73.227 96 41.931 96C41 96 40 95.0857 40 94C40 81.5 40 49.7778 40 49.7778Z" fill="#C4C4C4"/>
</mask>
<g mask="url(#mask0)">
<rect x="35.3752" y="43.4166" width="93.2499" height="58.125" fill="#53F11B" stroke="black" stroke-width="3"/>
<ellipse rx="103.736" ry="102.083" transform="matrix(-1 0 0 1 36.8753 35.7292)" fill="url(#paint1_radial)"/>
</g>
<rect opacity="0.8" x="48" y="56" width="22" height="22" rx="1" fill="white"/>
<rect opacity="0.1" x="32" y="100" width="100" height="4" fill="black"/>
<path d="M138 111.2C138 113.6 135.782 116 133.564 116L30.4356 116C28.2178 116 26 113.6 26 111.2L26 105.2C26 104.6 26.5545 104 27.1089 104L136.891 104C137.446 104 138 104.6 138 105.2V111.2Z" fill="white"/>
<path d="M80 69.7872C80 66.591 82.149 64 84.8 64H111.2C113.851 64 116 66.591 116 69.7872V126.213C116 129.409 113.851 132 111.2 132H84.8C82.149 132 80 129.409 80 126.213V69.7872Z" fill="black"/>
<mask id="mask1" mask-type="alpha" maskUnits="userSpaceOnUse" x="82" y="66" width="32" height="64">
<path d="M82.25 69.5899C82.25 68.0542 83.5625 66.5185 84.875 66.5185H111.125C112.438 66.5185 113.75 68.0542 113.75 69.5899V126.25C113.75 127.946 112.438 129.481 111.125 129.481H84.875C83.5625 129.481 82.25 127.946 82.25 126.41V69.5899Z" fill="#C4C4C4"/>
</mask>
<g mask="url(#mask1)">
<rect x="78.5" y="62.5" width="39" height="71" fill="#FD7461" stroke="black" stroke-width="3"/>
<ellipse cx="58.7857" cy="97.156" rx="45.6429" ry="52.3128" fill="url(#paint2_radial)"/>
<ellipse cx="107.643" cy="66.2104" rx="45.6429" ry="52.3128" fill="url(#paint3_radial)"/>
</g>
<path d="M91.25 65.2593C91.25 64.5638 91.8544 64 92.6 64H103.4C104.146 64 104.75 64.5638 104.75 65.2593V67.7778C104.75 68.4732 104.146 69.037 103.4 69.037H92.6C91.8544 69.037 91.25 68.4732 91.25 67.7778V65.2593Z" fill="black"/>
<path d="M68 125C65.7143 125 64.4183 125 60 125C55.5817 125 53.7143 125 52 125C52 123.619 55.5817 122 60 122C64.4183 122 68 123.619 68 125Z" fill="black"/>
<circle cx="60" cy="111" r="12" fill="#333333"/>
<circle opacity="0.2" cx="60" cy="111" r="6" fill="white"/>
<circle cx="60" cy="111" r="4" fill="black"/>
<defs>
<linearGradient id="paint0_linear" x1="82.5376" y1="40" x2="81.9905" y2="104" gradientUnits="userSpaceOnUse">
<stop offset="0.572564" stop-color="white"/>
<stop offset="0.95332" stop-color="#EEEEEE"/>
<stop offset="1" stop-color="#E6E6E6"/>
</linearGradient>
<radialGradient id="paint1_radial" cx="0" cy="0" r="1" gradientUnits="userSpaceOnUse" gradientTransform="translate(103.736 102.083) rotate(90) scale(102.083 103.736)">
<stop stop-color="#1BD8F1"/>
<stop offset="1" stop-color="#1BD8F1" stop-opacity="0"/>
</radialGradient>
<radialGradient id="paint2_radial" cx="0" cy="0" r="1" gradientUnits="userSpaceOnUse" gradientTransform="translate(58.7857 97.156) rotate(90) scale(52.3128 45.6429)">
<stop stop-color="#F1DC1B"/>
<stop offset="1" stop-color="#F1DC1B" stop-opacity="0"/>
</radialGradient>
<radialGradient id="paint3_radial" cx="0" cy="0" r="1" gradientUnits="userSpaceOnUse" gradientTransform="translate(107.643 66.2104) rotate(90) scale(52.3128 45.6429)">
<stop stop-color="#53F11B"/>
<stop offset="1" stop-color="#53F11B" stop-opacity="0"/>
</radialGradient>
</defs>
</svg>
