<svg width="20" height="20" viewBox="0 0 20 20" fill="none" xmlns="http://www.w3.org/2000/svg">
<circle cx="10" cy="10" r="10" fill="#FF5555"/>
<path d="M10.934 3.432V8.008C10.934 8.49333 10.91 8.97067 10.862 9.44C10.814 9.904 10.7527 10.3973 10.678 10.92H9.334C9.25933 10.3973 9.198 9.904 9.15 9.44C9.102 8.97067 9.078 8.49333 9.078 8.008V3.432H10.934ZM8.766 13.912C8.766 13.7467 8.79533 13.5893 8.854 13.44C8.918 13.2907 9.00333 13.1627 9.11 13.056C9.222 12.9493 9.35267 12.864 9.502 12.8C9.65133 12.736 9.81133 12.704 9.982 12.704C10.1473 12.704 10.3047 12.736 10.454 12.8C10.6033 12.864 10.7313 12.9493 10.838 13.056C10.95 13.1627 11.038 13.2907 11.102 13.44C11.166 13.5893 11.198 13.7467 11.198 13.912C11.198 14.0827 11.166 14.2427 11.102 14.392C11.038 14.536 10.95 14.6613 10.838 14.768C10.7313 14.8747 10.6033 14.9573 10.454 15.016C10.3047 15.08 10.1473 15.112 9.982 15.112C9.81133 15.112 9.65133 15.08 9.502 15.016C9.35267 14.9573 9.222 14.8747 9.11 14.768C9.00333 14.6613 8.918 14.536 8.854 14.392C8.79533 14.2427 8.766 14.0827 8.766 13.912Z" fill="white"/>
</svg>
